<?xml version="1.0" standalone="no"?>
<!DOCTYPE svg PUBLIC "-//W3C//DTD SVG 20010904//EN"
 "http://www.w3.org/TR/2001/REC-SVG-20010904/DTD/svg10.dtd">
<svg version="1.0" xmlns="http://www.w3.org/2000/svg"
 width="1271.000000pt" height="1280.000000pt" viewBox="0 0 1271.000000 1280.000000"
 preserveAspectRatio="xMidYMid meet">
<metadata>
Created by potrace 1.15, written by Peter Selinger 2001-2017
</metadata>
<g transform="translate(0.000000,1280.000000) scale(0.100000,-0.100000)"
fill="#607d8b" stroke="none">
<path d="M8866 10282 c-3 -5 -10 -60 -16 -123 -106 -1159 -586 -2500 -1426
-3981 -162 -285 -433 -733 -439 -726 -2 2 -31 109 -64 238 -309 1205 -830
2694 -1164 3330 -197 375 -314 518 -502 612 -243 123 -591 85 -894 -98 -93
-56 -221 -152 -221 -167 0 -5 20 -32 45 -58 25 -26 45 -58 45 -70 0 -12 27
-52 63 -93 284 -319 548 -737 818 -1291 422 -868 760 -1853 963 -2805 37 -172
106 -543 106 -568 0 -7 -38 -67 -86 -133 -824 -1148 -1664 -1768 -2555 -1885
-187 -24 -506 -15 -650 19 -106 25 -248 78 -310 116 -19 12 -39 21 -46 21 -13
0 -71 -169 -103 -300 -31 -123 -38 -342 -16 -443 26 -115 131 -303 221 -393
164 -165 519 -217 911 -133 632 136 1438 672 2289 1524 1194 1193 2426 2988
3424 4985 270 542 409 857 510 1160 118 351 137 549 67 693 -40 82 -113 205
-142 240 -108 130 -338 240 -629 300 -172 36 -193 39 -199 29z"/>
</g>
</svg>
